<svg width="206" height="308" viewBox="0 0 206 308" fill="none" xmlns="http://www.w3.org/2000/svg">
<path d="M3 186C3 174.954 11.9543 166 23 166H182.674C193.719 166 202.674 174.954 202.674 186V287.469C202.674 298.515 193.719 307.469 182.674 307.469H23C11.9543 307.469 3 298.515 3 287.469V186Z" fill="#FC844F"/>
<path d="M154.666 237.333C154.666 265.684 131.684 288.666 103.333 288.666C74.9826 288.666 52 265.684 52 237.333C52 208.983 74.9826 186 103.333 186C131.684 186 154.666 208.983 154.666 237.333Z" fill="#5E4236"/>
<path d="M193.336 192.168C193.336 201.097 186.097 208.336 177.168 208.336C168.239 208.336 161 201.097 161 192.168C161 183.239 168.239 176 177.168 176C186.097 176 193.336 183.239 193.336 192.168Z" fill="#5E4236"/>
<path d="M163.739 115.2C149.908 139.156 129.685 146.144 109.496 134.488C89.3065 122.831 76.7953 96.9439 90.6261 72.9881C104.457 49.0323 145.752 7.4974 165.941 19.1538C186.131 30.8102 177.57 91.2439 163.739 115.2Z" fill="#5D4236"/>
<path d="M159.414 110.929C147.352 131.822 129.854 137.997 112.477 127.964C95.1003 117.932 84.4243 95.4903 96.4867 74.5977C108.549 53.7051 144.415 17.3955 161.792 27.4281C179.169 37.4608 171.477 90.0365 159.414 110.929Z" fill="#53DD6C"/>
<path d="M152.201 46.1403C144.465 59.5393 108.902 125.162 115.924 130.686C116.062 130.762 116.202 130.842 116.346 130.925C116.191 130.865 116.051 130.785 115.924 130.686C110.496 127.654 109.898 129.353 108.161 126.2C107.699 107.26 152.804 39.1526 152.201 46.1403Z" fill="#5D4236"/>
<path d="M115.252 95.6232C129.083 119.579 125.024 140.586 104.835 152.243C84.6454 163.899 55.9706 161.791 42.1397 137.835C28.3088 113.879 12.9859 57.3493 33.1754 45.6929C53.3649 34.0365 101.421 71.6674 115.252 95.6232Z" fill="#5D4236"/>
<path d="M109.392 97.2328C121.454 118.125 118.053 136.367 100.676 146.399C83.299 156.432 58.5264 154.457 46.464 133.564C34.4017 112.672 20.8896 63.4559 38.2666 53.4233C55.6436 43.3907 97.3294 76.3402 109.392 97.2328Z" fill="#53DD6C"/>
<path d="M49.6763 71.0855C57.4122 84.4845 96.4615 148.094 104.756 144.775C104.891 144.694 105.03 144.613 105.174 144.53C105.045 144.634 104.906 144.715 104.756 144.775C99.4165 147.96 100.589 149.328 96.9898 149.255C80.3565 140.186 43.9263 67.0692 49.6763 71.0855Z" fill="#5D4236"/>
</svg>
